<mxfile host="app.diagrams.net" modified="2022-11-21T19:10:22.154Z" agent="5.0 (X11; Linux x86_64) AppleWebKit/537.36 (KHTML, like Gecko) Chrome/107.0.0.0 Safari/537.36" etag="1SV75h3Z6Pw1tsSpy6JX" version="20.5.3" type="github">
  <diagram id="C5RBs43oDa-KdzZeNtuy" name="Page-1">
    <mxGraphModel dx="1102" dy="670" grid="1" gridSize="10" guides="1" tooltips="1" connect="1" arrows="1" fold="1" page="1" pageScale="1" pageWidth="827" pageHeight="1169" math="0" shadow="0">
      <root>
        <mxCell id="WIyWlLk6GJQsqaUBKTNV-0" />
        <mxCell id="WIyWlLk6GJQsqaUBKTNV-1" parent="WIyWlLk6GJQsqaUBKTNV-0" />
        <mxCell id="S2rXzmmYxQ049UvbcEfT-2" value="" style="edgeStyle=orthogonalEdgeStyle;rounded=0;orthogonalLoop=1;jettySize=auto;html=1;" edge="1" parent="WIyWlLk6GJQsqaUBKTNV-1" source="S2rXzmmYxQ049UvbcEfT-0" target="S2rXzmmYxQ049UvbcEfT-1">
          <mxGeometry relative="1" as="geometry" />
        </mxCell>
        <mxCell id="S2rXzmmYxQ049UvbcEfT-0" value="Start" style="ellipse;whiteSpace=wrap;html=1;" vertex="1" parent="WIyWlLk6GJQsqaUBKTNV-1">
          <mxGeometry x="160" y="80" width="120" height="80" as="geometry" />
        </mxCell>
        <mxCell id="S2rXzmmYxQ049UvbcEfT-4" value="" style="edgeStyle=orthogonalEdgeStyle;rounded=0;orthogonalLoop=1;jettySize=auto;html=1;" edge="1" parent="WIyWlLk6GJQsqaUBKTNV-1" source="S2rXzmmYxQ049UvbcEfT-1" target="S2rXzmmYxQ049UvbcEfT-3">
          <mxGeometry relative="1" as="geometry" />
        </mxCell>
        <mxCell id="S2rXzmmYxQ049UvbcEfT-1" value="Input: integer userInput" style="shape=parallelogram;perimeter=parallelogramPerimeter;whiteSpace=wrap;html=1;fixedSize=1;" vertex="1" parent="WIyWlLk6GJQsqaUBKTNV-1">
          <mxGeometry x="160" y="240" width="120" height="60" as="geometry" />
        </mxCell>
        <mxCell id="S2rXzmmYxQ049UvbcEfT-6" value="" style="edgeStyle=orthogonalEdgeStyle;rounded=0;orthogonalLoop=1;jettySize=auto;html=1;" edge="1" parent="WIyWlLk6GJQsqaUBKTNV-1" source="S2rXzmmYxQ049UvbcEfT-3" target="S2rXzmmYxQ049UvbcEfT-5">
          <mxGeometry relative="1" as="geometry" />
        </mxCell>
        <mxCell id="S2rXzmmYxQ049UvbcEfT-3" value="While" style="rounded=0;whiteSpace=wrap;html=1;" vertex="1" parent="WIyWlLk6GJQsqaUBKTNV-1">
          <mxGeometry x="160" y="360" width="120" height="60" as="geometry" />
        </mxCell>
        <mxCell id="S2rXzmmYxQ049UvbcEfT-8" value="" style="edgeStyle=orthogonalEdgeStyle;rounded=0;orthogonalLoop=1;jettySize=auto;html=1;" edge="1" parent="WIyWlLk6GJQsqaUBKTNV-1" source="S2rXzmmYxQ049UvbcEfT-5" target="S2rXzmmYxQ049UvbcEfT-7">
          <mxGeometry relative="1" as="geometry" />
        </mxCell>
        <mxCell id="S2rXzmmYxQ049UvbcEfT-11" value="" style="edgeStyle=orthogonalEdgeStyle;rounded=0;sketch=0;orthogonalLoop=1;jettySize=auto;html=1;startArrow=none;" edge="1" parent="WIyWlLk6GJQsqaUBKTNV-1" source="S2rXzmmYxQ049UvbcEfT-12" target="S2rXzmmYxQ049UvbcEfT-10">
          <mxGeometry relative="1" as="geometry" />
        </mxCell>
        <mxCell id="S2rXzmmYxQ049UvbcEfT-5" value="userInput &amp;gt;=0" style="rhombus;whiteSpace=wrap;html=1;" vertex="1" parent="WIyWlLk6GJQsqaUBKTNV-1">
          <mxGeometry x="180" y="480" width="80" height="80" as="geometry" />
        </mxCell>
        <object label="" True="" id="S2rXzmmYxQ049UvbcEfT-9">
          <mxCell style="edgeStyle=orthogonalEdgeStyle;rounded=0;orthogonalLoop=1;jettySize=auto;html=1;entryX=0;entryY=0.5;entryDx=0;entryDy=0;sketch=0;startArrow=none;" edge="1" parent="WIyWlLk6GJQsqaUBKTNV-1" source="S2rXzmmYxQ049UvbcEfT-16" target="S2rXzmmYxQ049UvbcEfT-5">
            <mxGeometry relative="1" as="geometry">
              <Array as="points">
                <mxPoint x="90" y="520" />
              </Array>
            </mxGeometry>
          </mxCell>
        </object>
        <mxCell id="S2rXzmmYxQ049UvbcEfT-7" value="userInput + sum = sum" style="whiteSpace=wrap;html=1;" vertex="1" parent="WIyWlLk6GJQsqaUBKTNV-1">
          <mxGeometry x="160" y="650" width="120" height="60" as="geometry" />
        </mxCell>
        <mxCell id="S2rXzmmYxQ049UvbcEfT-15" value="" style="edgeStyle=orthogonalEdgeStyle;rounded=0;sketch=0;orthogonalLoop=1;jettySize=auto;html=1;" edge="1" parent="WIyWlLk6GJQsqaUBKTNV-1" source="S2rXzmmYxQ049UvbcEfT-10" target="S2rXzmmYxQ049UvbcEfT-14">
          <mxGeometry relative="1" as="geometry" />
        </mxCell>
        <mxCell id="S2rXzmmYxQ049UvbcEfT-10" value="Print Sum" style="whiteSpace=wrap;html=1;" vertex="1" parent="WIyWlLk6GJQsqaUBKTNV-1">
          <mxGeometry x="510" y="490" width="120" height="60" as="geometry" />
        </mxCell>
        <mxCell id="S2rXzmmYxQ049UvbcEfT-12" value="Output: Sum" style="shape=parallelogram;html=1;strokeWidth=2;perimeter=parallelogramPerimeter;whiteSpace=wrap;rounded=1;arcSize=12;size=0.23;" vertex="1" parent="WIyWlLk6GJQsqaUBKTNV-1">
          <mxGeometry x="350" y="490" width="100" height="60" as="geometry" />
        </mxCell>
        <mxCell id="S2rXzmmYxQ049UvbcEfT-13" value="" style="edgeStyle=orthogonalEdgeStyle;rounded=0;sketch=0;orthogonalLoop=1;jettySize=auto;html=1;endArrow=none;startArrow=none;" edge="1" parent="WIyWlLk6GJQsqaUBKTNV-1" source="S2rXzmmYxQ049UvbcEfT-18" target="S2rXzmmYxQ049UvbcEfT-12">
          <mxGeometry relative="1" as="geometry">
            <mxPoint x="260" y="520" as="sourcePoint" />
            <mxPoint x="430" y="520" as="targetPoint" />
          </mxGeometry>
        </mxCell>
        <mxCell id="S2rXzmmYxQ049UvbcEfT-14" value="End" style="ellipse;whiteSpace=wrap;html=1;" vertex="1" parent="WIyWlLk6GJQsqaUBKTNV-1">
          <mxGeometry x="670" y="490" width="120" height="60" as="geometry" />
        </mxCell>
        <mxCell id="S2rXzmmYxQ049UvbcEfT-16" value="True" style="text;html=1;strokeColor=none;fillColor=none;align=center;verticalAlign=middle;whiteSpace=wrap;rounded=0;" vertex="1" parent="WIyWlLk6GJQsqaUBKTNV-1">
          <mxGeometry x="90" y="585" width="60" height="30" as="geometry" />
        </mxCell>
        <mxCell id="S2rXzmmYxQ049UvbcEfT-17" value="" style="edgeStyle=orthogonalEdgeStyle;rounded=0;orthogonalLoop=1;jettySize=auto;html=1;entryX=0;entryY=0.5;entryDx=0;entryDy=0;sketch=0;endArrow=none;" edge="1" parent="WIyWlLk6GJQsqaUBKTNV-1" source="S2rXzmmYxQ049UvbcEfT-7" target="S2rXzmmYxQ049UvbcEfT-16">
          <mxGeometry relative="1" as="geometry">
            <mxPoint x="160" y="670" as="sourcePoint" />
            <mxPoint x="180" y="520" as="targetPoint" />
            <Array as="points">
              <mxPoint x="90" y="670" />
            </Array>
          </mxGeometry>
        </mxCell>
        <mxCell id="S2rXzmmYxQ049UvbcEfT-18" value="False" style="text;html=1;strokeColor=none;fillColor=none;align=center;verticalAlign=middle;whiteSpace=wrap;rounded=0;" vertex="1" parent="WIyWlLk6GJQsqaUBKTNV-1">
          <mxGeometry x="280" y="505" width="60" height="30" as="geometry" />
        </mxCell>
        <mxCell id="S2rXzmmYxQ049UvbcEfT-19" value="" style="edgeStyle=orthogonalEdgeStyle;rounded=0;sketch=0;orthogonalLoop=1;jettySize=auto;html=1;endArrow=none;" edge="1" parent="WIyWlLk6GJQsqaUBKTNV-1" source="S2rXzmmYxQ049UvbcEfT-5" target="S2rXzmmYxQ049UvbcEfT-18">
          <mxGeometry relative="1" as="geometry">
            <mxPoint x="260" y="520" as="sourcePoint" />
            <mxPoint x="361.5" y="520" as="targetPoint" />
          </mxGeometry>
        </mxCell>
      </root>
    </mxGraphModel>
  </diagram>
</mxfile>
